<?xml version="1.0" encoding="UTF-8" standalone="no"?>
<!-- Created with Inkscape (http://www.inkscape.org/) -->

<svg
   xmlns:dc="http://purl.org/dc/elements/1.1/"
   xmlns:cc="http://creativecommons.org/ns#"
   xmlns:rdf="http://www.w3.org/1999/02/22-rdf-syntax-ns#"
   xmlns:svg="http://www.w3.org/2000/svg"
   xmlns="http://www.w3.org/2000/svg"
   xmlns:sodipodi="http://sodipodi.sourceforge.net/DTD/sodipodi-0.dtd"
   xmlns:inkscape="http://www.inkscape.org/namespaces/inkscape"
   width="2271.7166"
   height="2267.7166"
   viewBox="0 0 601.05831 600.00002"
   version="1.1"
   id="svg8"
   inkscape:version="0.92.3 (2405546, 2018-03-11)"
   sodipodi:docname="sprite.svg">
  <defs
     id="defs2" />
  <sodipodi:namedview
     id="base"
     pagecolor="#ffffff"
     bordercolor="#666666"
     borderopacity="1.0"
     inkscape:pageopacity="0.0"
     inkscape:pageshadow="2"
     inkscape:zoom="0.5"
     inkscape:cx="341.45801"
     inkscape:cy="2063.963"
     inkscape:document-units="mm"
     inkscape:current-layer="layer1"
     showgrid="false"
     units="px"
     fit-margin-top="0"
     fit-margin-left="0"
     fit-margin-right="0"
     fit-margin-bottom="0"
     inkscape:window-width="1024"
     inkscape:window-height="670"
     inkscape:window-x="0"
     inkscape:window-y="27"
     inkscape:window-maximized="1" />
  <metadata
     id="metadata5">
    <rdf:RDF>
      <cc:Work
         rdf:about="">
        <dc:format>image/svg+xml</dc:format>
        <dc:type
           rdf:resource="http://purl.org/dc/dcmitype/StillImage" />
        <dc:title></dc:title>
      </cc:Work>
    </rdf:RDF>
  </metadata>
  <g
     inkscape:label="Camada 1"
     inkscape:groupmode="layer"
     id="layer1"
     transform="translate(49.047894,329.48822)">
    <rect
       style="opacity:1;fill:#a9e8ff;fill-opacity:1;fill-rule:nonzero;stroke:none;stroke-width:0.39629698;stroke-miterlimit:4;stroke-dasharray:none;stroke-dashoffset:0;stroke-opacity:1"
       id="rect815"
       width="158.75"
       height="158.75"
       x="-49.047894"
       y="-329.48822" />
    <path
       style="fill:#e6e6e6;stroke:none;stroke-width:0.1914932px;stroke-linecap:butt;stroke-linejoin:miter;stroke-opacity:1"
       d="m 9.685384,-277.47553 c -5.187695,2.85628 -8.072555,5.96844 0.382986,10.34063 12.859962,-0.48297 26.226419,-0.90263 47.107327,-0.38298 9.981486,-4.26927 2.840876,-6.48116 -0.957466,-9.76615 -3.780999,-10.43395 -6.757924,-7.79246 -10.340631,-2.29793 5.093589,-9.02848 -3.718086,-10.24182 -7.468235,-4.02135 -0.149958,-1.99805 -2.071944,-12.33443 -10.340634,-3.06389 -4.583301,-3.25654 -8.558138,-3.47076 -11.106605,3.44688 -3.392089,-0.25972 -7.755323,-2.70451 -7.276742,5.74479 z"
       id="path880-7"
       inkscape:connector-curvature="0"
       sodipodi:nodetypes="ccccccccc" />
    <path
       style="fill:#f2f2f2;stroke:none;stroke-width:0.1914932px;stroke-linecap:butt;stroke-linejoin:miter;stroke-opacity:1"
       d="m -19.230089,-281.11389 c -5.187695,2.85628 -8.072555,5.96844 0.382986,10.34063 12.8599623,-0.48297 26.2264183,-0.90263 47.107327,-0.38298 9.981486,-4.26927 2.840877,-6.48116 -0.957465,-9.76615 -3.781001,-10.43395 -6.757924,-7.79246 -10.340633,-2.29793 5.09359,-9.02848 -3.718085,-10.24182 -7.4682351,-4.02135 -0.1499567,-1.99805 -2.0719422,-12.33443 -10.34063268,-3.06389 -4.58330082,-3.25654 -8.55813792,-3.47076 -11.10660522,3.44688 -3.392089,-0.25972 -7.755323,-2.70451 -7.276742,5.74479 z"
       id="path880"
       inkscape:connector-curvature="0"
       sodipodi:nodetypes="ccccccccc" />
    <path
       style="fill:#e6e6e6;stroke:none;stroke-width:0.12672764px;stroke-linecap:butt;stroke-linejoin:miter;stroke-opacity:1"
       d="m 18.767738,-249.73379 c -3.565663,1.82 -5.548517,3.80304 0.263238,6.58897 8.839049,-0.30775 18.026229,-0.57515 32.378323,-0.24403 6.860583,-2.72035 1.952622,-4.12975 -0.658096,-6.22291 -2.598797,-6.64843 -4.64493,-4.96529 -7.107435,-1.46423 3.500981,-5.75287 -2.555556,-6.526 -5.133149,-2.56237 -0.103071,-1.27314 -1.424111,-7.85939 -7.107438,-1.95228 -3.150245,-2.07504 -5.882273,-2.21154 -7.633913,2.19632 -2.331488,-0.16549 -5.330474,-1.72329 -5.00153,3.66053 z"
       id="path880-5"
       inkscape:connector-curvature="0"
       sodipodi:nodetypes="ccccccccc" />
    <path
       style="fill:#2ab42a;fill-opacity:1;stroke:none;stroke-width:0.26458332px;stroke-linecap:butt;stroke-linejoin:miter;stroke-opacity:1"
       d="m -16.768725,-171.26739 126.470825,0.52917 c -29.536736,-38.43607 -21.817942,-63.47782 -37.620232,-55.29434 -36.595662,1.50974 -67.916931,23.88917 -88.850593,54.76517 z"
       id="path912-5"
       inkscape:connector-curvature="0"
       sodipodi:nodetypes="cccc" />
    <path
       style="fill:#40d840;stroke:none;stroke-width:0.26458332px;stroke-linecap:butt;stroke-linejoin:miter;stroke-opacity:1;fill-opacity:1"
       d="m -49.047894,-170.73822 126.470827,0.52917 c -29.53674,-38.43607 -63.622111,-69.82782 -79.4243986,-61.64434 -36.5956634,1.50974 -26.1127654,30.23918 -47.0464284,61.11517 z"
       id="path912"
       inkscape:connector-curvature="0"
       sodipodi:nodetypes="cccc" />
    <path
       style="fill:#483737;fill-opacity:1;stroke:none;stroke-width:0.06575509px;stroke-linecap:butt;stroke-linejoin:miter;stroke-opacity:1"
       d="m 120.5955,-329.48799 v 0.97965 h -0.8801 v 6.44311 h -0.99634 v 1.1457 h -1.59418 v 0.86355 h -1.46127 v 1.07929 h -1.11258 v 1.01304 h -1.87644 v -1.04617 h -0.99635 v -0.96319 h -1.01304 v -1.92618 l -0.96309,-0.0335 v 5.96137 h 1.06275 v 0.88014 h 0.83028 v 1.21221 h 1.06276 v 0.94653 h 1.52777 v 0.4152 h 0.41507 v 4.53337 h 2.07579 v -0.8968 h -1.02961 v -1.11258 h 0.97979 v -0.9298 h 0.94652 v -1.07945 h 1.09599 v 1.04617 h 1.0793 v 3.0056 h 1.97612 v -0.99634 h -1.11257 v -4.00194 h 0.81372 v -0.97979 h 1.11255 v -2.00926 h 0.88 v -3.10525 h 1.22891 v 1.02961 h 0.92981 v -1.95955 h -2.1753 v -2.05909 h 4.2345 v -0.86342 h -3.08866 v -1.12926 h 4.99826 v -4.53337 h -0.92994 v -0.92983 z m 1.97597,0.90529 v 1.17422 h -1.1155 v -1.15663 z"
       id="path2402-3-6-7"
       inkscape:connector-curvature="0" />
  </g>
</svg>
